# xmcd
#
# Track frame offsets: 
#        150
#        11617
#        20916
#        31076
#        39476
#        51045
#        62976
#        72816
#        82708
#        92611
#        101930
#        112858
#        122507
#        137508
#        147327
#        157780
#        170099
#        182665
#        193178
#        203054
#        212527
#        221765
#        232607
#        242375
#        253288
#        265533
#        276214
#        285785
#        295896
#        305255
#        315986
#        324395
#        334488
#        347141
#        359995
#
# Disc length: 4934 seconds
#
# Revision: 0
# Processed by: cddbd v1.5.2PL0 Copyright (c) Steve Scherf et al.
# Submitted via: ExactAudioCopy v1.1
#
DISCID=fa134423
DTITLE=George Jones - CD1_The Complete Collection 1960-62
DYEAR=2016
DGENRE=Country
TTITLE0=The Crown Prince Of Country Music, 1960 - One Is a Lonely Numb
TTITLE0=er
TTITLE1=The Crown Prince Of Country Music, 1960 - Maybe Little Baby
TTITLE2=The Crown Prince Of Country Music, 1960 - Run Boy
TTITLE3=The Crown Prince Of Country Music, 1960 - I'm a One Woman Man
TTITLE4=The Crown Prince Of Country Music, 1960 - Settle Down
TTITLE5=The Crown Prince Of Country Music, 1960 - Heartbroken Me
TTITLE6=The Crown Prince Of Country Music, 1960 - Rain Rain
TTITLE7=The Crown Prince Of Country Music, 1960 - Frozen Heart
TTITLE8=The Crown Prince Of Country Music, 1960 - I've Got Five Dollar
TTITLE8=s and It's Saturday Night
TTITLE9=The Crown Prince Of Country Music, 1960 - Cause I Love You
TTITLE10=The Crown Prince Of Country Music, 1960 - You're in My Heart
TTITLE11=The Crown Prince Of Country Music, 1960 - You All Goodnight
TTITLE12=Salutes Hank Williams, 1960 - Cold, Cold Heart
TTITLE13=Salutes Hank Williams, 1960 - Nobody's Lonesome for Me
TTITLE14=Salutes Hank Williams, 1960 - Hey, Good Lookin'
TTITLE15=Salutes Hank Williams, 1960 - Howlin' at the Moon
TTITLE16=Salutes Hank Williams, 1960 - There'll Be No Teardrops Tonigh
TTITLE16=t
TTITLE17=Salutes Hank Williams, 1960 - Half As Much
TTITLE18=Salutes Hank Williams, 1960 - Jambalaya (On the Bayou)
TTITLE19=Salutes Hank Williams, 1960 - Why Don't You Love Me?
TTITLE20=Salutes Hank Williams, 1960 - Honky Tonkin'
TTITLE21=Salutes Hank Williams, 1960 - I Can't Help It (If I'm Still i
TTITLE21=n Love You)
TTITLE22=Salutes Hank Williams, 1960 - Settin' the Woods on Fire
TTITLE23=Salutes Hank Williams, 1960 - Window Shopping
TTITLE24=Duets Country Style, 1962 - Waltz of the Angels
TTITLE25=Duets Country Style, 1962 - Not Even Friends
TTITLE26=Duets Country Style, 1962 - Looking Back to See
TTITLE27=Duets Country Style, 1962 - Yearning (To Kiss You)
TTITLE28=Duets Country Style, 1962 - If You Don't Somebody Else Will
TTITLE29=Duets Country Style, 1962 - When Two Worlds Collide
TTITLE30=Duets Country Style, 1962 - I Want to Be Where You're Gonna B
TTITLE30=e
TTITLE31=Duets Country Style, 1962 - Are You Mine
TTITLE32=Duets Country Style, 1962 - Baby You've Got What It Takes
TTITLE33=Duets Country Style, 1962 - I Don't Hear You
TTITLE34=Duets Country Style, 1962 - Talk About Lovin'
EXTD=
EXTT0=
EXTT1=
EXTT2=
EXTT3=
EXTT4=
EXTT5=
EXTT6=
EXTT7=
EXTT8=
EXTT9=
EXTT10=
EXTT11=
EXTT12=
EXTT13=
EXTT14=
EXTT15=
EXTT16=
EXTT17=
EXTT18=
EXTT19=
EXTT20=
EXTT21=
EXTT22=
EXTT23=
EXTT24=
EXTT25=
EXTT26=
EXTT27=
EXTT28=
EXTT29=
EXTT30=
EXTT31=
EXTT32=
EXTT33=
EXTT34=
PLAYORDER=
